<?xml version="1.0" standalone="no"?>
<!DOCTYPE svg PUBLIC "-//W3C//DTD SVG 20010904//EN"
 "http://www.w3.org/TR/2001/REC-SVG-20010904/DTD/svg10.dtd">
<svg version="1.0" xmlns="http://www.w3.org/2000/svg"
 width="512.000000pt" height="512.000000pt" viewBox="0 0 512.000000 512.000000"
 preserveAspectRatio="xMidYMid meet">

<g transform="translate(0.000000,512.000000) scale(0.100000,-0.100000)"
fill="#0A3871" stroke="none">
<path d="M2410 5110 c-489 -68 -894 -411 -1055 -893 -63 -188 -67 -227 -72
-709 l-5 -438 -137 0 c-92 0 -154 -5 -187 -15 -60 -18 -127 -72 -157 -129
l-22 -41 0 -1345 0 -1345 22 -40 c29 -55 99 -118 154 -139 41 -15 164 -16
1629 -14 1524 3 1586 4 1620 22 49 26 98 74 123 121 l22 40 3 1334 c2 1210 1
1340 -14 1384 -21 62 -67 115 -124 141 -45 21 -53 21 -1233 24 l-1189 2 4 433
c5 492 8 511 92 682 80 161 196 278 351 355 117 57 195 73 335 67 139 -6 207
-23 325 -82 191 -94 328 -251 394 -455 12 -36 28 -122 35 -192 15 -147 38
-198 109 -246 115 -79 248 -65 340 37 72 80 82 194 36 423 -100 503 -503 905
-1009 1004 -94 18 -304 26 -390 14z m250 -2830 c143 -27 303 -156 374 -302 89
-179 45 -391 -111 -539 -32 -31 -68 -61 -79 -67 -21 -11 -22 -20 -27 -209 -2
-109 -10 -215 -16 -236 -40 -129 -220 -197 -356 -133 -59 27 -109 80 -126 133
-6 21 -13 125 -16 231 l-5 194 -82 81 c-45 45 -94 105 -109 133 -195 369 133
794 553 714z"/>
</g>
</svg>
