<?xml version="1.0" standalone="no"?>
<!DOCTYPE svg PUBLIC "-//W3C//DTD SVG 20010904//EN"
 "http://www.w3.org/TR/2001/REC-SVG-20010904/DTD/svg10.dtd">
<svg version="1.0" xmlns="http://www.w3.org/2000/svg"
 width="512.000000pt" height="512.000000pt" viewBox="0 0 512.000000 512.000000"
 preserveAspectRatio="xMidYMid meet">

<g transform="translate(0.000000,512.000000) scale(0.100000,-0.100000)"
fill="#ffffff" stroke="none">
<path d="M2420 5114 c-208 -27 -407 -101 -580 -217 -96 -64 -273 -241 -337
-337 -92 -137 -155 -282 -195 -450 -19 -77 -21 -125 -25 -497 l-5 -413 -107 0
c-64 0 -131 -6 -166 -15 -172 -45 -305 -179 -350 -352 -22 -86 -22 -2380 0
-2466 45 -173 178 -307 350 -352 52 -13 244 -15 1555 -15 1646 0 1549 -4 1671
61 115 62 214 197 239 328 6 35 10 469 10 1220 0 1270 2 1218 -56 1333 -36 71
-123 159 -193 197 -84 45 -159 61 -282 61 l-107 0 -5 413 c-4 372 -6 420 -25
497 -62 257 -170 450 -351 631 -185 185 -380 293 -631 350 -83 19 -331 33
-410 23z m310 -438 c94 -20 215 -69 289 -118 194 -127 339 -342 380 -563 7
-35 11 -205 11 -427 l0 -368 -850 0 -850 0 0 373 c0 406 4 440 59 582 100 260
336 459 616 520 80 18 264 18 345 1z m-24 -2357 c148 -56 249 -180 275 -338
23 -145 -42 -304 -161 -395 l-49 -37 -3 -279 -3 -278 -30 -44 c-97 -138 -306
-118 -370 34 -12 31 -15 86 -15 302 l0 264 -51 38 c-118 90 -183 250 -160 393
36 226 234 384 456 364 33 -3 83 -14 111 -24z"/>
</g>
</svg>
