<?xml version="1.0" standalone="no"?>
<!DOCTYPE svg PUBLIC "-//W3C//DTD SVG 20010904//EN"
 "http://www.w3.org/TR/2001/REC-SVG-20010904/DTD/svg10.dtd">
<svg version="1.0" xmlns="http://www.w3.org/2000/svg"
 width="512.000000pt" height="512.000000pt" viewBox="0 0 512.000000 512.000000"
 preserveAspectRatio="xMidYMid meet">

<g transform="translate(0.000000,512.000000) scale(0.100000,-0.100000)"
fill="#0A3871" stroke="none">
<path d="M1932 5100 c-106 -28 -187 -75 -267 -155 -81 -81 -127 -161 -155
-271 -19 -75 -20 -116 -20 -1474 0 -1358 1 -1399 20 -1474 28 -110 74 -190
155 -271 81 -81 161 -127 271 -155 75 -19 115 -20 1258 -20 1307 0 1252 -2
1387 66 97 48 211 162 257 254 66 134 62 41 62 1600 0 1559 4 1466 -62 1600
-45 91 -169 213 -262 258 -131 64 -84 62 -1386 61 -1134 0 -1188 -1 -1258 -19z
m2470 -316 c63 -21 126 -78 154 -138 l24 -51 0 -1395 0 -1395 -24 -51 c-13
-27 -43 -67 -66 -87 -84 -72 -4 -68 -1311 -65 -1144 3 -1175 3 -1214 23 -50
25 -105 80 -130 130 -20 39 -20 71 -23 1420 -2 953 1 1393 8 1423 21 86 97
166 181 190 21 7 466 11 1195 11 1025 1 1166 -1 1206 -15z"/>
<path d="M650 4034 c-162 -43 -309 -165 -379 -315 -22 -46 -44 -111 -50 -143
-8 -41 -11 -524 -11 -1556 0 -1458 1 -1499 20 -1574 28 -110 74 -190 155 -271
81 -81 161 -127 271 -155 75 -19 116 -20 1474 -20 1358 0 1399 1 1474 20 218
55 382 225 431 445 24 107 18 273 -11 312 -73 98 -195 98 -268 0 -17 -23 -21
-48 -26 -145 -7 -132 -22 -174 -80 -232 -20 -20 -54 -45 -75 -55 -39 -20 -68
-20 -1445 -20 -1377 0 -1406 0 -1445 20 -50 25 -105 80 -130 130 -20 39 -20
71 -23 1535 -3 1661 -7 1545 65 1630 57 66 118 90 233 90 79 0 103 4 140 23
66 33 93 78 88 148 -5 65 -32 109 -82 133 -44 21 -247 21 -326 0z"/>
</g>
</svg>
